<?xml version="1.0" encoding="UTF-8" standalone="no"?>
<!DOCTYPE svg PUBLIC "-//W3C//DTD SVG 1.1//EN" "http://www.w3.org/Graphics/SVG/1.1/DTD/svg11.dtd">
<svg width="100%" height="100%" viewBox="0 0 2250 2250" version="1.1" xmlns="http://www.w3.org/2000/svg" xmlns:xlink="http://www.w3.org/1999/xlink" xml:space="preserve" xmlns:serif="http://www.serif.com/" style="fill-rule:evenodd;clip-rule:evenodd;stroke-linecap:round;stroke-miterlimit:1.5;">
    <path id="Outline" d="M1125,68.007L2040.38,596.504L2040.38,1653.5L1125,2181.99L209.618,1653.5L209.618,596.504L1125,68.007Z" style="fill:none;stroke:#eafaea;stroke-width:62.5px;"/>
    <g>
        <g id="CodingLanguages">
            <path id="partThree" d="M990.928,1000.24C945.683,945.015 889.791,917.402 823.253,917.402C793.976,917.402 766.862,922.725 741.911,933.371C716.959,944.017 695.501,958.489 677.535,976.787C659.57,995.085 645.431,1016.88 635.117,1042.16C624.804,1067.44 619.647,1094.73 619.647,1124C619.647,1153.94 624.804,1181.56 635.117,1206.84C645.431,1232.13 659.736,1254.08 678.034,1272.71C696.332,1291.34 717.791,1305.98 742.41,1316.63C767.029,1327.28 793.644,1332.6 822.255,1332.6C884.801,1332.6 941.025,1305.98 990.928,1252.75L990.928,1484.3L970.967,1491.29C941.025,1501.94 913.079,1509.76 887.129,1514.75C861.18,1519.74 835.563,1522.23 810.278,1522.23C758.379,1522.23 708.642,1512.42 661.067,1492.79C613.493,1473.16 571.574,1445.55 535.311,1409.95C499.048,1374.35 469.937,1332.1 447.98,1283.19C426.022,1234.29 415.044,1180.89 415.044,1123C415.044,1065.12 425.856,1012.05 447.481,963.812C469.106,915.572 498.05,873.986 534.313,839.054C570.576,804.122 612.661,776.841 660.568,757.212C708.475,737.584 758.711,727.769 811.276,727.769C841.218,727.769 870.661,730.93 899.605,737.251C928.549,743.572 958.99,753.386 990.928,766.694L990.928,1000.24Z" style="fill:#eafaea;fill-rule:nonzero;"/>
            <path id="partTwo" d="M1125,971.364L1283.29,971.364L1283.29,813.073L1382.61,813.073L1382.61,971.364L1747.69,971.364L1747.69,1070.68L1382.61,1070.68L1382.61,1436.93L1283.29,1436.93L1283.29,1070.68L1125,1070.68L1125,971.364Z" style="fill:#eafaea;fill-rule:nonzero;"/>
            <path id="partOne" d="M1125,1179.32L1490.86,1179.32L1490.86,813.073L1590.17,813.073L1590.17,1179.32L1747.69,1179.32L1747.69,1278.64L1590.17,1278.64L1590.17,1436.93L1490.86,1436.93L1490.86,1278.64L1125,1278.64L1125,1179.32Z" style="fill:#eafaea;fill-rule:nonzero;"/>
        </g>
    </g>
</svg>
