<?xml version="1.0" encoding="UTF-8" standalone="no"?>
<!DOCTYPE svg PUBLIC "-//W3C//DTD SVG 1.1//EN" "http://www.w3.org/Graphics/SVG/1.1/DTD/svg11.dtd">
<svg width="100%" height="100%" viewBox="0 0 1080 1080" version="1.1" xmlns="http://www.w3.org/2000/svg" xmlns:xlink="http://www.w3.org/1999/xlink" xml:space="preserve" xmlns:serif="http://www.serif.com/" style="fill-rule:evenodd;clip-rule:evenodd;stroke-linecap:round;stroke-miterlimit:1.5;">
    <path id="Outline" d="M540,32.644L979.384,286.322L979.384,793.678L540,1047.36L100.616,793.678L100.616,286.322L540,32.644Z" style="fill:none;stroke:#eafaea;stroke-width:30px;"/>
    <g>
        <g id="CodingLanguages">
            <path id="partThree" d="M383.89,473.984C372.287,480.899 371.76,480.619 367.719,483.088C358.03,489.007 358.145,488.798 343.198,497.047C324.409,507.416 324.541,507.409 314.17,513.154C303.404,519.119 303.302,519.104 294.58,523.923C283.107,530.262 299.865,521.108 274.123,535.378C278.827,538.392 278.925,538.007 290.262,544.586C305.543,553.453 308.081,555.045 319.05,561.111C337.286,571.194 337.216,570.95 348.246,577.359C360.258,584.338 360.658,584.74 366.634,587.992C375.601,592.872 375.558,592.913 383.89,597.609L383.89,685.452L363.541,674.223C350.046,666.479 346.519,664.78 331.283,656.229C320.369,650.104 317.285,648.221 299.493,638.449C276.36,625.743 274.952,624.671 249.12,610.554C227.443,598.707 225.596,597.426 213.644,590.947C194.003,580.3 189.299,577.718 179.906,571.978C179.929,557.753 179.906,557.702 179.906,529.916C179.906,502.129 180.092,519.513 179.906,498.453C242.191,463.946 179.967,498.73 242.342,463.856C282.029,442.362 242.472,463.897 281.898,442.399C310.71,426.689 281.93,442.423 310.343,426.853C350.096,404.07 309.841,427.058 350.505,404.048C383.983,385.105 350.7,404.163 383.89,385.304L383.89,473.984Z" style="fill:#eafaea;fill-rule:nonzero;"/>
            <path id="partTwo" d="M423.021,766.629L451.104,699.623L495.765,590.563L528.035,512.399L568.4,413.654L594.627,349.086L653.648,349.086L613.097,448.419L587.449,512.108L552.292,596.72L510.081,699.348L482.127,766.629L423.021,766.629Z" style="fill:#eafaea;fill-rule:nonzero;"/>
            <path id="partOne" d="M696.186,472.998L696.143,429.991L696.11,385.304L821.339,454.557L900.094,498.441L900.094,572.417L803.06,626.372L696.286,685.452L696.289,596.894L805.338,535.378L696.186,472.998Z" style="fill:#eafaea;fill-rule:nonzero;"/>
        </g>
    </g>
</svg>
